# xmcd
#
# Track frame offsets:
#	183
#	19098
#	31618
#	43343
#	55555
#	69863
#	83828
#	103250
#	115733
#	134103
#	145113
#	162385
#	173210
#	185098
#	198568
#	213723
#	224003
#	236870
#	250388
#	262700
#	271763
#
# Disc length: 3811 seconds
#
# Revision: 4
# Processed by: cddbd v1.5.2PL0 Copyright (c) Steve Scherf et al.
# Submitted via: audiograbber 1.83.01
#
DISCID=3a0ee115,3d0ee115
DTITLE=Various Artist - Country Collection 2
DYEAR=1994
DGENRE=Country
TTITLE0=John Denver - Rocky Mountain High
TTITLE1=Kenny Rogers - Ruben James
TTITLE2=Everly Brothers - Let it be me
TTITLE3=Freddy Fender - Wasted Days And Wasted Nights
TTITLE4=Bellamy Brothers - If I Said You Had A Beautiful Body
TTITLE5=Billie Jo Spears - Blue Bayou
TTITLE6=Glenn Frey - Desperado
TTITLE7=Anne Murray - I Just Fall In Love Again
TTITLE8=Don Williams - I Believe In You
TTITLE9=Johnny Cash - Oh Lonesome Me
TTITLE10=Lynn Anderson - Close To You
TTITLE11=Kris Kristofferson - Jesus Was A Capricorn
TTITLE12=Ray Charles - Together Again
TTITLE13=Loretta Lynn - Coal Miner's Daughter
TTITLE14=James Taylor - Fire And Rain
TTITLE15=Buck Owens - Rolling In My Sweet Baby's Arms
TTITLE16=Olivia Newton John - If Not For You
TTITLE17=Jim Croce - Bad Bad Leroy Brown
TTITLE18=Nancy Sinatra - These Boots Are Made For Walking
TTITLE19=Frankie Laine - Rawhide
TTITLE20=Tammy Wynette - Crying In The Rain (Live)
EXTD=YEAR: 1994
EXTT0=
EXTT1=
EXTT2=
EXTT3=
EXTT4=
EXTT5=
EXTT6=
EXTT7=
EXTT8=
EXTT9=
EXTT10=
EXTT11=
EXTT12=
EXTT13=
EXTT14=
EXTT15=
EXTT16=
EXTT17=
EXTT18=
EXTT19=
EXTT20=
PLAYORDER=
